<?xml version="1.0" encoding="UTF-8"?>
<svg version="1.1" xmlns="http://www.w3.org/2000/svg" width="163" height="173">
<path d="M0 0 C53.79 0 107.58 0 163 0 C163 57.09 163 114.18 163 173 C109.21 173 55.42 173 0 173 C0 115.91 0 58.82 0 0 Z " fill="#071628" transform="translate(0,0)"/>
<path d="M0 0 C53.79 0 107.58 0 163 0 C163 57.09 163 114.18 163 173 C109.21 173 55.42 173 0 173 C0 115.91 0 58.82 0 0 Z M22.80859375 49.52734375 C18.44260852 55.00533357 15.04659485 60.29712455 12.875 67 C12.54242188 68.010625 12.20984375 69.02125 11.8671875 70.0625 C7.93505418 83.38215883 8.11414923 101.0103084 13 114 C13.35191406 114.99773437 13.70382813 115.99546875 14.06640625 117.0234375 C16.77220452 124.11387918 20.33967131 130.03275304 25 136 C25.51046875 136.68707031 26.0209375 137.37414062 26.546875 138.08203125 C33.91701641 147.33119386 44.99789974 153.97519964 56 158 C56.70608398 158.25894043 57.41216797 158.51788086 58.13964844 158.78466797 C64.78921159 161.02283301 70.88991527 161.4710588 77.875 161.375 C78.93493164 161.36557373 79.99486328 161.35614746 81.08691406 161.34643555 C88.41650614 161.20478729 95.09368504 160.60812498 102 158 C102.99773437 157.63648438 103.99546875 157.27296875 105.0234375 156.8984375 C121.60132718 150.42596168 136.28057836 139.41650585 144.609375 123.39453125 C151.65260135 106.20193659 152.8479098 86.19774972 145.82568359 68.89501953 C138.42003327 51.89837323 125.94479937 38.05048738 108.96484375 30.1640625 C77.59169441 17.84627791 45.21522842 23.68582391 22.80859375 49.52734375 Z " fill="#FBFBFC" transform="translate(0,0)"/>
<path d="M0 0 C13.22191387 -0.75955675 23.08531534 3.4041701 33 12 C41.82655381 23.4384932 44.70283903 34.72874558 43 49 C40.35504011 60.40026693 33.73727362 70.19727739 24.04296875 76.81640625 C15.96112492 81.4986217 8.18400029 81.35272832 -1 81 C-1 80.34 -1 79.68 -1 79 C4.94 78.505 4.94 78.505 11 78 C11 76.68 11 75.36 11 74 C10.01193359 73.30390625 10.01193359 73.30390625 9.00390625 72.59375 C8.34261719 72.0678125 7.68132812 71.541875 7 71 C6.71484375 68.40625 6.71484375 68.40625 6.9375 65.5 C7.39381417 61.54905385 7.39381417 61.54905385 5.546875 58.29296875 C5.03640625 57.86628906 4.5259375 57.43960938 4 57 C3.3125 54.8125 3.3125 54.8125 3 53 C1.02 53 -0.96 53 -3 53 C-3 49.7 -3 46.4 -3 43 C-4.5138993 55.99307751 -5.47664348 68.92985946 -6 82 C-6.66 82 -7.32 82 -8 82 C-8.66 78.04 -9.32 74.08 -10 70 C-10.66 70 -11.32 70 -12 70 C-12.0928125 71.0828125 -12.0928125 71.0828125 -12.1875 72.1875 C-13.2536405 75.87798635 -15.14791164 77.49572729 -18 80 C-21.01213029 81.50606515 -24.11282622 81.12160331 -27.4140625 81.09765625 C-28.14370209 81.0962413 -28.87334167 81.09482635 -29.62509155 81.09336853 C-31.95843585 81.08776531 -34.29168464 81.07521235 -36.625 81.0625 C-38.20572778 81.05748541 -39.78645707 81.05292243 -41.3671875 81.04882812 C-45.24482854 81.03779484 -49.12239807 81.02052811 -53 81 C-52.51120361 80.39929688 -52.02240723 79.79859375 -51.51879883 79.1796875 C-49.53789713 76.33681814 -49.70036822 74.43152454 -49.6875 71 C-49.32943157 65.35353632 -49.32943157 65.35353632 -46.4375 62.25 C-42.39708544 60.78075834 -39.24254692 60.25584358 -35 61 C-33 62 -31 63 -29 64 C-26.2760491 64.25258454 -23.74406475 64.14193438 -21 64 C-21 63.67 -21 63.34 -21 63 C-22.010625 63.2475 -23.02125 63.495 -24.0625 63.75 C-27.99692099 63.99980451 -28.47631038 64.01658513 -31.5 62.0625 C-35.09664767 59.74000106 -37.68148885 59.440193 -42 60 C-44.76441969 61.40759341 -44.76441969 61.40759341 -47 63 C-47.66 63 -48.32 63 -49 63 C-49.375 60.25 -49.375 60.25 -49 57 C-45.77663397 53.93780227 -43.59337694 53.07781993 -39.1875 52.5 C-34.98098193 52.69452107 -31.60807457 54.25587896 -27.8828125 56.125 C-26.04374842 57.14048098 -26.04374842 57.14048098 -24 57 C-33.11062497 52.51573226 -33.11062497 52.51573226 -43 52 C-46.35161246 53.38214122 -46.35161246 53.38214122 -49 55 C-49 52.36 -49 49.72 -49 47 C-44.6708773 44.54160679 -40.8869617 44.40842043 -36 45 C-34 46 -32 47 -30 48 C-26.98161146 48.2540228 -24.02120241 48.18127214 -21 48 C-21.58007812 47.96261719 -22.16015625 47.92523438 -22.7578125 47.88671875 C-26.62731759 47.56106733 -29.46676876 47.28363364 -32.9375 45.4375 C-38.03914245 43.0428515 -43.68784615 43.22928205 -49 45 C-49.1953125 38.9453125 -49.1953125 38.9453125 -49 37 C-46.60282138 34.60282138 -45.92116497 34.6531712 -42.625 34.5625 C-37.05135906 34.64316051 -32.79778163 36.53067458 -27.78515625 38.8203125 C-24.43083757 40.24107581 -21.61073472 40.75381354 -18 41 C-18 40.34 -18 39.68 -18 39 C-17.01 39.33 -16.02 39.66 -15 40 C-14.01 37.03 -13.02 34.06 -12 31 C-11.34 31.33 -10.68 31.66 -10 32 C-9.505 34.475 -9.505 34.475 -9 37 C-7.515 31.06 -7.515 31.06 -6 25 C-5.67 25 -5.34 25 -5 25 C-5.33 31.6 -5.66 38.2 -6 45 C-5.34 41.37 -4.68 37.74 -4 34 C-3.01 33.67 -2.02 33.34 -1 33 C-0.67 33.66 -0.34 34.32 0 35 C1.27310312 34.06558465 2.543388 33.12732889 3.8125 32.1875 C4.52019531 31.66542969 5.22789063 31.14335938 5.95703125 30.60546875 C7.8078935 29.15096706 9.47650573 27.79402129 11 26 C11.0825 25.071875 11.165 24.14375 11.25 23.1875 C12.33615684 18.57133344 15.29157013 16.73048884 19 14 C22.875 15.875 22.875 15.875 24 17 C24.33 15.35 24.66 13.7 25 12 C16.96426596 6.94987466 10.45736612 3.97834822 1 3 C0.505 1.515 0.505 1.515 0 0 Z " fill="#0B1526" transform="translate(89,52)"/>
<path d="M0 0 C0.33 0 0.66 0 1 0 C0.67 6.6 0.34 13.2 0 20 C0.66 16.37 1.32 12.74 2 9 C2.99 8.67 3.98 8.34 5 8 C5.495 12.455 5.495 12.455 6 17 C6.33 15.68 6.66 14.36 7 13 C7.99 13 8.98 13 10 13 C10.495 14.485 10.495 14.485 11 16 C19.25 16.33 27.5 16.66 36 17 C36 17.33 36 17.66 36 18 C24.615 18.495 24.615 18.495 13 19 C12.67 19.66 12.34 20.32 12 21 C11.34 21 10.68 21 10 21 C10 19.68 10 18.36 10 17 C9.34 17 8.68 17 8 17 C7.67 19.97 7.34 22.94 7 26 C6.34 26 5.68 26 5 26 C4.34 23.36 3.68 20.72 3 18 C1.4861007 30.99307751 0.52335652 43.92985946 0 57 C-0.66 57 -1.32 57 -2 57 C-2.66 53.04 -3.32 49.08 -4 45 C-4.66 45 -5.32 45 -6 45 C-6.061875 45.721875 -6.12375 46.44375 -6.1875 47.1875 C-7.2536405 50.87798635 -9.14791164 52.49572729 -12 55 C-15.01213029 56.50606515 -18.11282622 56.12160331 -21.4140625 56.09765625 C-22.14370209 56.0962413 -22.87334167 56.09482635 -23.62509155 56.09336853 C-25.95843585 56.08776531 -28.29168464 56.07521235 -30.625 56.0625 C-32.20572778 56.05748541 -33.78645707 56.05292243 -35.3671875 56.04882812 C-39.24482854 56.03779484 -43.12239807 56.02052811 -47 56 C-46.51120361 55.39929688 -46.02240723 54.79859375 -45.51879883 54.1796875 C-43.53789713 51.33681814 -43.70036822 49.43152454 -43.6875 46 C-43.32943157 40.35353632 -43.32943157 40.35353632 -40.4375 37.25 C-36.39708544 35.78075834 -33.24254692 35.25584358 -29 36 C-27 37 -25 38 -23 39 C-20.2760491 39.25258454 -17.74406475 39.14193438 -15 39 C-15 38.67 -15 38.34 -15 38 C-16.010625 38.2475 -17.02125 38.495 -18.0625 38.75 C-21.99692099 38.99980451 -22.47631038 39.01658513 -25.5 37.0625 C-29.09664767 34.74000106 -31.68148885 34.440193 -36 35 C-38.76441969 36.40759341 -38.76441969 36.40759341 -41 38 C-41.66 38 -42.32 38 -43 38 C-43.375 35.25 -43.375 35.25 -43 32 C-39.77663397 28.93780227 -37.59337694 28.07781993 -33.1875 27.5 C-28.98098193 27.69452107 -25.60807457 29.25587896 -21.8828125 31.125 C-20.04374842 32.14048098 -20.04374842 32.14048098 -18 32 C-27.11062497 27.51573226 -27.11062497 27.51573226 -37 27 C-40.35161246 28.38214122 -40.35161246 28.38214122 -43 30 C-43 27.36 -43 24.72 -43 22 C-38.6708773 19.54160679 -34.8869617 19.40842043 -30 20 C-28 21 -26 22 -24 23 C-20.98161146 23.2540228 -18.02120241 23.18127214 -15 23 C-15.58007812 22.96261719 -16.16015625 22.92523438 -16.7578125 22.88671875 C-20.62731759 22.56106733 -23.46676876 22.28363364 -26.9375 20.4375 C-32.03914245 18.0428515 -37.68784615 18.22928205 -43 20 C-43.1953125 13.9453125 -43.1953125 13.9453125 -43 12 C-40.60282138 9.60282138 -39.92116497 9.6531712 -36.625 9.5625 C-31.05135906 9.64316051 -26.79778163 11.53067458 -21.78515625 13.8203125 C-18.43083757 15.24107581 -15.61073472 15.75381354 -12 16 C-12 15.34 -12 14.68 -12 14 C-11.01 14.33 -10.02 14.66 -9 15 C-8.01 12.03 -7.02 9.06 -6 6 C-5.34 6.33 -4.68 6.66 -4 7 C-3.505 9.475 -3.505 9.475 -3 12 C-1.515 6.06 -1.515 6.06 0 0 Z " fill="#3A352B" transform="translate(83,77)"/>
<path d="M0 0 C13.22191387 -0.75955675 23.08531534 3.4041701 33 12 C41.82655381 23.4384932 44.70283903 34.72874558 43 49 C40.35504011 60.40026693 33.73727362 70.19727739 24.04296875 76.81640625 C15.96112492 81.4986217 8.18400029 81.35272832 -1 81 C-1 80.34 -1 79.68 -1 79 C-0.24976562 78.98582031 0.50046875 78.97164063 1.2734375 78.95703125 C11.20392628 78.49427548 18.53291019 75.61882841 26 69 C27.95912697 66.46796068 27.95912697 66.46796068 29.625 63.6875 C30.19476563 62.78386719 30.76453125 61.88023438 31.3515625 60.94921875 C35.05026913 54.33186446 36.53273665 49.2354509 36.4375 41.75 C36.42920166 40.91098145 36.42090332 40.07196289 36.41235352 39.20751953 C36.12024345 28.44414721 32.81447406 19.62170714 25 12 C17.46802433 6.43755838 10.21555353 3.95333312 1 3 C0.67 2.01 0.34 1.02 0 0 Z " fill="#BD933B" transform="translate(89,52)"/>
<path d="M0 0 C0.66 0 1.32 0 2 0 C2 2.31 2 4.62 2 7 C2.71285156 6.9071875 3.42570312 6.814375 4.16015625 6.71875 C11.94566276 6.13195543 11.94566276 6.13195543 15.078125 8.7109375 C16.22883397 10.14673203 17.35318098 11.60408055 18.44921875 13.08203125 C20.63698123 15.78780298 22.60365771 16.4831653 26 17 C28.77747682 16.71360214 28.77747682 16.71360214 31 16 C28.12758921 23.92004529 23.14667028 29.87119951 15.89453125 34.125 C13.94720951 35.02438159 12.09412886 35.55424308 10 36 C9.9175 35.401875 9.835 34.80375 9.75 34.1875 C9.19498411 31.82493831 9.19498411 31.82493831 6.95703125 30.70703125 C5 29 5 29 4.71484375 26.40625 C4.78832031 25.4471875 4.86179687 24.488125 4.9375 23.5 C5.39381417 19.54905385 5.39381417 19.54905385 3.546875 16.29296875 C3.03640625 15.86628906 2.5259375 15.43960938 2 15 C1.3125 12.8125 1.3125 12.8125 1 11 C-0.98 11 -2.96 11 -5 11 C-4.67 8.36 -4.34 5.72 -4 3 C-3.67 3 -3.34 3 -3 3 C-3 4.98 -3 6.96 -3 9 C-2.34 9 -1.68 9 -1 9 C-0.67 6.03 -0.34 3.06 0 0 Z " fill="#0C1621" transform="translate(91,94)"/>
<path d="M0 0 C1.3729712 0.62702622 2.72682688 1.29701415 4.0625 2 C10.32283524 5.13016762 17.18703082 4.32314478 24 4 C24 6.64 24 9.28 24 12 C22.4840625 12.061875 22.4840625 12.061875 20.9375 12.125 C17.49701196 12.56804071 15.95651658 13.71861641 13.5 16.125 C10.7028241 18.75245961 10.4052382 19 6.3125 19 C3 18 3 18 0.9375 16.9375 C-1.85813171 15.58477498 -3.93104844 15.68684168 -7 16 C-9.71126384 17.42621684 -9.71126384 17.42621684 -12 19 C-12.66 19 -13.32 19 -14 19 C-14.375 15.75 -14.375 15.75 -14 12 C-10.89900358 8.97652849 -8.26291034 7.75924971 -4 7.5625 C-0.10306174 7.74701412 2.52424858 9.26212429 6 11 C8.7239509 11.25258454 11.25593525 11.14193438 14 11 C14 10.67 14 10.34 14 10 C12.4840625 10.37125 12.4840625 10.37125 10.9375 10.75 C7.00307901 10.99980451 6.52368962 11.01658513 3.5 9.0625 C-0.09664767 6.74000106 -2.68148885 6.440193 -7 7 C-9.76441969 8.40759341 -9.76441969 8.40759341 -12 10 C-12.66 10 -13.32 10 -14 10 C-14.375 7.25 -14.375 7.25 -14 4 C-9.82340242 0.0322323 -5.60670069 -1.07980902 0 0 Z " fill="#AF8749" transform="translate(54,105)"/>
<path d="M0 0 C2.31 0.66 4.62 1.32 7 2 C6.5240307 6.99767765 5.12573658 10.07050258 2 14 C-1.60649044 16.51775861 -5.37921897 16.25758679 -9.609375 16.1953125 C-10.33618469 16.1924826 -11.06299438 16.18965271 -11.81182861 16.18673706 C-14.12472251 16.17557523 -16.43722388 16.15047851 -18.75 16.125 C-20.32160898 16.11496501 -21.89322404 16.10584006 -23.46484375 16.09765625 C-27.31004622 16.07564904 -31.15495664 16.04114715 -35 16 C-34.51015625 15.3915625 -34.0203125 14.783125 -33.515625 14.15625 C-31.80290876 12.09450929 -31.80290876 12.09450929 -31.75 9.5 C-31 7 -31 7 -27.8125 4.6875 C-24.39251976 2.97053033 -21.85333573 2.42609893 -18 3 C-16.5459375 3.7734375 -16.5459375 3.7734375 -15.0625 4.5625 C-11.12168343 6.41227104 -9.15361335 6.20832388 -5 5 C-2.08113411 2.58363062 -2.08113411 2.58363062 0 0 Z " fill="#48337C" transform="translate(71,117)"/>
<path d="M0 0 C13.86 0 27.72 0 42 0 C37 5 37 5 34.59643555 5.56762695 C33.37887573 5.52835083 33.37887573 5.52835083 32.13671875 5.48828125 C30.80737305 5.46411133 30.80737305 5.46411133 29.45117188 5.43945312 C28.53916016 5.39755859 27.62714844 5.35566406 26.6875 5.3125 C25.75615234 5.28994141 24.82480469 5.26738281 23.86523438 5.24414062 C21.5751604 5.18542078 19.28842125 5.10336858 17 5 C17.0928125 6.19496094 17.185625 7.38992187 17.28125 8.62109375 C18.06231612 23.09057164 18.06231612 23.09057164 13.125 28.625 C9.51724138 32 9.51724138 32 7 32 C7.00112793 31.20303711 7.00225586 30.40607422 7.00341797 29.58496094 C6.99130957 25.97244536 6.93367284 22.36204672 6.875 18.75 C6.87886719 16.86861328 6.87886719 16.86861328 6.8828125 14.94921875 C7.04754002 8.72074007 7.04754002 8.72074007 4.60644531 3.28320312 C2.80647048 2.0389535 2.80647048 2.0389535 0 1 C0 0.67 0 0.34 0 0 Z " fill="#EFF0F1" transform="translate(34,52)"/>
<path d="M0 0 C0.33 0 0.66 0 1 0 C1 5.94 1 11.88 1 18 C1.99 18 2.98 18 4 18 C5.46484375 19.4609375 5.46484375 19.4609375 6.9375 21.375 C9.06593577 24.13345276 10.78135722 25.62356097 14 27 C13.505 26.319375 13.01 25.63875 12.5 24.9375 C10.69634889 21.40534991 10.76978647 18.91363009 11 15 C13.33333333 17.33333333 15.66666667 19.66666667 18 22 C18.66 22.165 19.32 22.33 20 22.5 C22 23 22 23 24 25 C23.77662722 31.25443787 23.77662722 31.25443787 21.4375 33.5 C17.79699929 34.24676938 14.54830252 34.16337787 11 33 C8.5 30.4375 8.5 30.4375 7 28 C6.67 28.66 6.34 29.32 6 30 C1.71 29.34 -2.58 28.68 -7 28 C-5.68 26.35 -4.36 24.7 -3 23 C-3 22.01 -3 21.02 -3 20 C-2.34 19.34 -1.68 18.68 -1 18 C-0.63168919 16.06742145 -0.63168919 16.06742145 -0.5859375 13.8671875 C-0.52792969 12.65869141 -0.52792969 12.65869141 -0.46875 11.42578125 C-0.4378125 10.58402344 -0.406875 9.74226563 -0.375 8.875 C-0.33632813 8.02550781 -0.29765625 7.17601563 -0.2578125 6.30078125 C-0.16343506 4.20088316 -0.08062414 2.10047109 0 0 Z " fill="#495B70" transform="translate(51,57)"/>
<path d="M0 0 C0.33 0 0.66 0 1 0 C0.67 6.6 0.34 13.2 0 20 C0.66 16.37 1.32 12.74 2 9 C2.99 8.67 3.98 8.34 5 8 C5.33 10.97 5.66 13.94 6 17 C6.33 15.68 6.66 14.36 7 13 C7.99 13 8.98 13 10 13 C10.33 13.99 10.66 14.98 11 16 C19.25 16.33 27.5 16.66 36 17 C36 17.33 36 17.66 36 18 C28.41 18.33 20.82 18.66 13 19 C12.67 19.66 12.34 20.32 12 21 C11.34 21 10.68 21 10 21 C10 19.68 10 18.36 10 17 C9.34 17 8.68 17 8 17 C7.67 19.97 7.34 22.94 7 26 C6.34 26 5.68 26 5 26 C4.34 23.36 3.68 20.72 3 18 C2.01 25.92 1.02 33.84 0 42 C-1.68000403 38.63999194 -2.2726122 37.2398336 -2.59765625 33.7421875 C-2.71657227 32.55689453 -2.71657227 32.55689453 -2.83789062 31.34765625 C-2.91201172 30.53167969 -2.98613281 29.71570313 -3.0625 28.875 C-3.21663125 27.24706832 -3.3740288 25.61944161 -3.53515625 23.9921875 C-3.600979 23.27401855 -3.66680176 22.55584961 -3.73461914 21.81591797 C-3.91710299 19.90481559 -3.91710299 19.90481559 -5 18 C-5.99 20.475 -5.99 20.475 -7 23 C-7.66 23 -8.32 23 -9 23 C-9.33 21.02 -9.66 19.04 -10 17 C-10.66 17.33 -11.32 17.66 -12 18 C-13.54023996 18.06950541 -15.08334988 18.08452357 -16.625 18.0625 C-17.85089844 18.04896484 -17.85089844 18.04896484 -19.1015625 18.03515625 C-19.72804687 18.02355469 -20.35453125 18.01195313 -21 18 C-21 17.67 -21 17.34 -21 17 C-17.92382812 16.70703125 -17.92382812 16.70703125 -14.84765625 16.4140625 C-14.23792969 16.27742188 -13.62820312 16.14078125 -13 16 C-12.67 15.34 -12.34 14.68 -12 14 C-11.01 14.33 -10.02 14.66 -9 15 C-8.01 12.03 -7.02 9.06 -6 6 C-5.34 6.33 -4.68 6.66 -4 7 C-3.67 8.65 -3.34 10.3 -3 12 C-2.01 8.04 -1.02 4.08 0 0 Z " fill="#C9CAC7" transform="translate(83,77)"/>
<path d="M0 0 C13.22907794 -0.75996831 23.07603133 3.40956462 33 12 C37.9126263 18.25153847 40.84134303 24.14688052 42 32 C41.34 32 40.68 32 40 32 C38.64908472 34.70183055 38.66141942 37.11808206 38.4375 40.125 C38.35371094 41.22070312 38.26992187 42.31640625 38.18359375 43.4453125 C38.09271484 44.70988281 38.09271484 44.70988281 38 46 C37.67 46 37.34 46 37 46 C36.97421875 45.11699219 36.9484375 44.23398438 36.921875 43.32421875 C36.34565621 31.1319529 33.99095581 20.76916753 25 12 C17.46802433 6.43755838 10.21555353 3.95333312 1 3 C0.67 2.01 0.34 1.02 0 0 Z " fill="#B78F3F" transform="translate(89,52)"/>
<path d="M0 0 C1.09441406 -0.02513672 1.09441406 -0.02513672 2.2109375 -0.05078125 C4.625 0.3125 4.625 0.3125 7.453125 1.8203125 C11.22888205 3.59659229 13.85273086 3.61737554 18 3.5 C19.86785156 3.45939453 19.86785156 3.45939453 21.7734375 3.41796875 C22.71445313 3.38316406 23.65546875 3.34835938 24.625 3.3125 C24.625 4.3025 24.625 5.2925 24.625 6.3125 C25.945 6.3125 27.265 6.3125 28.625 6.3125 C28.625 7.6325 28.625 8.9525 28.625 10.3125 C24.40987495 12.35619699 21.29057859 12.83089762 16.625 12.3125 C14.60674064 11.52441777 12.60767125 10.68626149 10.625 9.8125 C6.04981594 7.80443916 2.69185251 6.5018036 -2.375 7.3125 C-5.72661246 8.69464122 -5.72661246 8.69464122 -8.375 10.3125 C-8.375 7.6725 -8.375 5.0325 -8.375 2.3125 C-5.47556088 0.66598593 -3.33271049 0.01754058 0 0 Z " fill="#917B48" transform="translate(48.375,96.6875)"/>
<path d="M0 0 C0.99 0.33 1.98 0.66 3 1 C2.67 2.32 2.34 3.64 2 5 C0.8553125 5.0309375 0.8553125 5.0309375 -0.3125 5.0625 C-1.199375 5.371875 -2.08625 5.68125 -3 6 C-3.78024669 7.69053449 -4.55024191 9.39085161 -5.17578125 11.14453125 C-6.46918913 14.05623146 -8.65571467 15.90915092 -11 18 C-8.0920773 17.91188113 -6.40572082 17.38446437 -4.28515625 15.375 C-3.69605469 14.735625 -3.10695313 14.09625 -2.5 13.4375 C0.65856802 10.05085157 0.65856802 10.05085157 3.9375 9.5625 C4.9584375 9.7790625 4.9584375 9.7790625 6 10 C6 9.34 6 8.68 6 8 C6.99 8 7.98 8 9 8 C8.67 9.32 8.34 10.64 8 12 C7.01 12 6.02 12 5 12 C-0.45177776 12.70237628 -3.55465014 17.07140626 -7 21 C-4.08347826 21.16681109 -4.08347826 21.16681109 -1 21 C-0.34 20.34 0.32 19.68 1 19 C3.32495277 18.61250787 5.6599583 18.28241883 8 18 C9.33917261 17.69096017 10.67653254 17.37057089 12 17 C12.495 18.98 12.495 18.98 13 21 C12.01 21.33 11.02 21.66 10 22 C9.34 21.67 8.68 21.34 8 21 C5.0842309 20.58297878 5.0842309 20.58297878 2 21 C1.38125 21.639375 0.7625 22.27875 0.125 22.9375 C-2.60649466 25.58865658 -4.4189402 25.50406072 -8.09375 25.78515625 C-10.3781309 26.04261721 -12.05763777 26.78602361 -14 28 C-14.33 26.68 -14.66 25.36 -15 24 C-15.99 24 -16.98 24 -18 24 C-18 25.98 -18 27.96 -18 30 C-20 28 -20 28 -20.125 24.75 C-18.73507815 20.11692716 -16.9313639 18.9364678 -13.0078125 16.359375 C-11.05663204 15.03834231 -9.51109157 13.80673993 -8 12 C-7.9175 11.071875 -7.835 10.14375 -7.75 9.1875 C-6.78137381 5.0708387 -4.93157784 3.67170119 -1.7890625 1.00390625 C-1.19867188 0.67261719 -0.60828125 0.34132813 0 0 Z " fill="#20242B" transform="translate(108,66)"/>
<path d="M0 0 C5.53838266 0.08026642 9.81088093 1.89593812 14.765625 4.24609375 C17.73766722 5.48444467 20.44132831 6.02776711 23.625 6.4375 C23.625 6.7675 23.625 7.0975 23.625 7.4375 C15.875 7.5625 15.875 7.5625 13.625 6.4375 C13.955 7.4275 14.285 8.4175 14.625 9.4375 C17.595 9.7675 20.565 10.0975 23.625 10.4375 C21.24129091 12.82120909 20.6313401 12.73338602 17.375 12.75 C14.11235227 12.69294257 12.66462443 12.45773375 9.6875 10.9375 C4.61129276 8.45119441 -1.05200809 8.66316936 -6.375 10.4375 C-6.5703125 4.3828125 -6.5703125 4.3828125 -6.375 2.4375 C-3.97782138 0.04032138 -3.29616497 0.0906712 0 0 Z " fill="#1B6D73" transform="translate(46.375,86.5625)"/>
<path d="M0 0 C3.3 0.33 6.6 0.66 10 1 C9.67 1.66 9.34 2.32 9 3 C6.69 3 4.38 3 2 3 C2 3.66 2 4.32 2 5 C2.61488281 4.96519531 3.22976562 4.93039063 3.86328125 4.89453125 C4.67152344 4.86746094 5.47976562 4.84039062 6.3125 4.8125 C7.51326172 4.76029297 7.51326172 4.76029297 8.73828125 4.70703125 C11.54288832 5.07032232 12.10800051 5.98723459 14 8 C16.03341887 8.77813652 16.03341887 8.77813652 18.1875 9.1875 C19.445625 9.455625 20.70375 9.72375 22 10 C22.11472656 9.39542969 22.22945312 8.79085937 22.34765625 8.16796875 C23.33115667 4.89944938 25.50972591 3.24732052 28 1 C28.66 0.67 29.32 0.34 30 0 C30.31111883 5.91125786 29.96464909 9.81186409 27 15 C24.9375 15.75 24.9375 15.75 23 16 C22.34 16.99 21.68 17.98 21 19 C20.67 18.01 20.34 17.02 20 16 C19.113125 15.731875 18.22625 15.46375 17.3125 15.1875 C12.90795231 13.60851121 11.06903425 11.50746772 8 8 C8 7.34 8 6.68 8 6 C4.37 6 0.74 6 -3 6 C-3 5.01 -3 4.02 -3 3 C-2.34 3 -1.68 3 -1 3 C-0.67 2.01 -0.34 1.02 0 0 Z " fill="#0A131F" transform="translate(96,95)"/>
<path d="M0 0 C2 1.5 2 1.5 3 3 C2.67 3.99 2.34 4.98 2 6 C5.08888522 8.05925681 5.70935927 8.2390374 9.1875 8.125 C10.445625 8.08375 11.70375 8.0425 13 8 C11.9375 9.5625 11.9375 9.5625 10 11 C6.6398254 10.81671775 3.94745517 10.48808297 0.9375 8.9375 C-1.85813171 7.58477498 -3.93104844 7.68684168 -7 8 C-9.71126384 9.42621684 -9.71126384 9.42621684 -12 11 C-12.66 11 -13.32 11 -14 11 C-14.375 7.75 -14.375 7.75 -14 4 C-9.56171582 -0.32732708 -5.87981494 -0.67473286 0 0 Z " fill="#BF7F4E" transform="translate(54,113)"/>
<path d="M0 0 C0 2.64 0 5.28 0 8 C-1.546875 8.12375 -1.546875 8.12375 -3.125 8.25 C-7.05854577 8.74947729 -7.05854577 8.74947729 -10.0625 11.0625 C-13.45667786 13.30121305 -15.017284 13.69264626 -19 13 C-21.375 11 -21.375 11 -23 9 C-22.01 8.01 -21.02 7.02 -20 6 C-19.34 6.33 -18.68 6.66 -18 7 C-16.62657169 7.0689472 -15.24997898 7.08467708 -13.875 7.0625 C-12.59625 7.041875 -11.3175 7.02125 -10 7 C-9.34 5.68 -8.68 4.36 -8 3 C-9.65 2.67 -11.3 2.34 -13 2 C-13 1.67 -13 1.34 -13 1 C-11.58366664 0.83052421 -10.16691467 0.66454493 -8.75 0.5 C-7.56664063 0.36078125 -7.56664063 0.36078125 -6.359375 0.21875 C-4 0 -4 0 0 0 Z " fill="#AF7340" transform="translate(78,109)"/>
<path d="M0 0 C0.66 0 1.32 0 2 0 C2.33 2.97 2.66 5.94 3 9 C3.33 7.68 3.66 6.36 4 5 C4.99 5 5.98 5 7 5 C7.33 5.99 7.66 6.98 8 8 C16.25 8.33 24.5 8.66 33 9 C33 9.33 33 9.66 33 10 C25.41 10.33 17.82 10.66 10 11 C9.67 11.66 9.34 12.32 9 13 C8.34 13 7.68 13 7 13 C7 11.68 7 10.36 7 9 C6.34 9 5.68 9 5 9 C4.67 11.97 4.34 14.94 4 18 C3.34 18 2.68 18 2 18 C1.34 15.36 0.68 12.72 0 10 C-0.33 12.97 -0.66 15.94 -1 19 C-1.99 19 -2.98 19 -4 19 C-3.52570278 16.01998162 -3.04581304 13.04105713 -2.5625 10.0625 C-2.42779297 9.21236328 -2.29308594 8.36222656 -2.15429688 7.48632812 C-2.02216797 6.67744141 -1.89003906 5.86855469 -1.75390625 5.03515625 C-1.63345947 4.2862915 -1.5130127 3.53742676 -1.38891602 2.76586914 C-1 1 -1 1 0 0 Z " fill="#D1D0C3" transform="translate(86,85)"/>
<path d="M0 0 C-0.33 0.99 -0.66 1.98 -1 3 C-5.62 3 -10.24 3 -15 3 C-14.34 4.65 -13.68 6.3 -13 8 C-10.36 8 -7.72 8 -5 8 C-4.67 9.32 -4.34 10.64 -4 12 C-7.9446398 12 -10.3684282 11.42104983 -14 10 C-14.66 9.34 -15.32 8.68 -16 8 C-18.20250992 7.53993654 -18.20250992 7.53993654 -20.625 7.375 C-21.44226563 7.30023438 -22.25953125 7.22546875 -23.1015625 7.1484375 C-23.72804688 7.09945312 -24.35453125 7.05046875 -25 7 C-25 6.34 -25 5.68 -25 5 C-21.535 4.505 -21.535 4.505 -18 4 C-20.31 3.67 -22.62 3.34 -25 3 C-25 2.01 -25 1.02 -25 0 C-21.58382503 -0.1972935 -18.16705407 -0.38112295 -14.75 -0.5625 C-13.29787109 -0.64661133 -13.29787109 -0.64661133 -11.81640625 -0.73242188 C-10.88183594 -0.78076172 -9.94726562 -0.82910156 -8.984375 -0.87890625 C-8.12553711 -0.9260376 -7.26669922 -0.97316895 -6.38183594 -1.02172852 C-4.07335735 -1.00066921 -2.20243733 -0.66206871 0 0 Z " fill="#262E31" transform="translate(123,93)"/>
<path d="M0 0 C0.33 0 0.66 0 1 0 C1 5.94 1 11.88 1 18 C1.99 18.33 2.98 18.66 4 19 C4.5625 20.8125 4.5625 20.8125 5 23 C5.37125 23.680625 5.7425 24.36125 6.125 25.0625 C7 27 7 27 6 30 C1.71 29.34 -2.58 28.68 -7 28 C-5.68 26.35 -4.36 24.7 -3 23 C-3 22.01 -3 21.02 -3 20 C-2.34 19.34 -1.68 18.68 -1 18 C-0.63168919 16.06742145 -0.63168919 16.06742145 -0.5859375 13.8671875 C-0.52792969 12.65869141 -0.52792969 12.65869141 -0.46875 11.42578125 C-0.4378125 10.58402344 -0.406875 9.74226563 -0.375 8.875 C-0.33632813 8.02550781 -0.29765625 7.17601563 -0.2578125 6.30078125 C-0.16343506 4.20088316 -0.08062414 2.10047109 0 0 Z " fill="#324961" transform="translate(51,57)"/>
<path d="M0 0 C0.99 0.33 1.98 0.66 3 1 C2.67 2.32 2.34 3.64 2 5 C0.8553125 5.0309375 0.8553125 5.0309375 -0.3125 5.0625 C-1.199375 5.371875 -2.08625 5.68125 -3 6 C-3.78024669 7.69053449 -4.55024191 9.39085161 -5.17578125 11.14453125 C-6.46918913 14.05623146 -8.65571467 15.90915092 -11 18 C-8.0920773 17.91188113 -6.40572082 17.38446437 -4.28515625 15.375 C-3.69605469 14.735625 -3.10695313 14.09625 -2.5 13.4375 C0.65856802 10.05085157 0.65856802 10.05085157 3.9375 9.5625 C4.9584375 9.7790625 4.9584375 9.7790625 6 10 C6 9.34 6 8.68 6 8 C6.99 8 7.98 8 9 8 C8.67 9.32 8.34 10.64 8 12 C7.01 12 6.02 12 5 12 C1.12778627 12.48985836 -0.34694559 14.18417299 -2.875 17.0625 C-6.32563025 20.85819328 -6.32563025 20.85819328 -9.5078125 21.52734375 C-11.72445055 21.50302327 -13.81492177 21.3641797 -16 21 C-16 20.34 -16 19.68 -16 19 C-14.72482707 17.87296789 -13.40420075 16.79695103 -12.0625 15.75 C-8.23976365 12.53330722 -7.73322322 10.92307018 -7 6 C-4.95428402 3.60527736 -2.75332383 1.54498739 0 0 Z " fill="#7D6838" transform="translate(108,66)"/>
<path d="M0 0 C0.66 0 1.32 0 2 0 C2 7.92 2 15.84 2 24 C2.66 24 3.32 24 4 24 C4 26.64 4 29.28 4 32 C4.66 32.33 5.32 32.66 6 33 C5.69320312 33.84820312 5.38640625 34.69640625 5.0703125 35.5703125 C3.99392617 39.01946287 3.38548682 42.30159223 2.875 45.875 C2.70742187 47.02742188 2.53984375 48.17984375 2.3671875 49.3671875 C2.24601562 50.23601562 2.12484375 51.10484375 2 52 C1.67 52 1.34 52 1 52 C0.87132711 43.93649887 1.20318916 36.02502344 2 28 C1.34 29.32 0.68 30.64 0 32 C0 21.44 0 10.88 0 0 Z " fill="#8D733E" transform="translate(81,52)"/>
<path d="M0 0 C0.66 0 1.32 0 2 0 C2 2.31 2 4.62 2 7 C2.71285156 6.9071875 3.42570312 6.814375 4.16015625 6.71875 C11.94910007 6.13169636 11.94910007 6.13169636 15.11328125 8.74609375 C16.875 10.9375 16.875 10.9375 18.3671875 13.15234375 C20.43681589 15.49429167 21.95345745 15.67469122 25 16 C25 17.32 25 18.64 25 20 C21 20 21 20 19.4375 18.57421875 C18.963125 17.95160156 18.48875 17.32898438 18 16.6875 C15.88029029 13.93994149 14.08493186 11.65633925 11 10 C8.14301594 9.9454993 5.57007913 10.03099033 2.75 10.3125 C2.00492187 10.37373047 1.25984375 10.43496094 0.4921875 10.49804688 C-1.33982155 10.6507143 -3.17014316 10.82339754 -5 11 C-4.67 8.36 -4.34 5.72 -4 3 C-3.67 3 -3.34 3 -3 3 C-3 4.98 -3 6.96 -3 9 C-2.34 9 -1.68 9 -1 9 C-0.67 6.03 -0.34 3.06 0 0 Z " fill="#24292F" transform="translate(91,94)"/>
<path d="M0 0 C2.5625 1.5 2.5625 1.5 4 3 C2 6 2 6 0.046875 6.40625 C-0.71109375 6.4371875 -1.4690625 6.468125 -2.25 6.5 C-6.41962356 6.816595 -9.3572242 7.85169632 -13 10 C-13 7.36 -13 4.72 -13 2 C-8.69978837 -0.45307527 -4.85839752 -0.61509987 0 0 Z " fill="#75795A" transform="translate(53,97)"/>
<path d="M0 0 C3.23535087 0.471822 4.62741513 1.24742166 7 3.4375 C6.67 4.7575 6.34 6.0775 6 7.4375 C2.54173658 7.49539006 -0.91640293 7.53105821 -4.375 7.5625 C-5.35984375 7.57925781 -6.3446875 7.59601563 -7.359375 7.61328125 C-8.30039063 7.61972656 -9.24140625 7.62617187 -10.2109375 7.6328125 C-11.51490479 7.64852295 -11.51490479 7.64852295 -12.84521484 7.66455078 C-15 7.4375 -15 7.4375 -17 5.4375 C-16.32453125 5.41171875 -15.6490625 5.3859375 -14.953125 5.359375 C-8.29843848 4.93624464 -5.64938384 0.82386848 0 0 Z " fill="#030C21" transform="translate(113,85.5625)"/>
<path d="M0 0 C0.66 0 1.32 0 2 0 C1.44687265 4.02992782 0.8441938 8.02022924 0 12 C-1.32 10.68 -2.64 9.36 -4 8 C-4 8.66 -4 9.32 -4 10 C-10.21430015 10.70617047 -14.46680633 8.68907106 -20.109375 6.1796875 C-23.50628234 4.79338207 -26.36263038 4.24800247 -30 4 C-30 3.67 -30 3.34 -30 3 C-25.28400182 2.07529447 -22.32734391 1.77076223 -18 4 C-17.67 3.01 -17.34 2.02 -17 1 C-16.505 1.804375 -16.01 2.60875 -15.5 3.4375 C-12.52620707 6.48563775 -11.00346798 6.7367009 -6.90625 7.01953125 C-4.79801243 6.99793046 -2.97928657 6.74223246 -1 6 C-0.67 4.02 -0.34 2.04 0 0 Z " fill="#0C202F" transform="translate(75,83)"/>
<path d="M0 0 C4.31941016 -0.43194102 6.52098198 -0.28018035 10.3125 1.9375 C13.87751954 5.2268247 14.41296775 9.35434824 15 14 C13.68 14 12.36 14 11 14 C11.061875 12.741875 11.12375 11.48375 11.1875 10.1875 C11.17106609 6.93816354 11.17106609 6.93816354 9.875 4 C7.21065116 2.57901395 4.96508915 2.80232739 2 3 C2.639375 3.495 3.27875 3.99 3.9375 4.5 C7.46966675 8.78141424 7 13.62679905 7 19 C5.68 18.67 4.36 18.34 3 18 C3.03480469 17.24074219 3.06960937 16.48148438 3.10546875 15.69921875 C3.13253906 14.70535156 3.15960938 13.71148437 3.1875 12.6875 C3.22230469 11.70136719 3.25710937 10.71523437 3.29296875 9.69921875 C2.94954537 6.53514468 2.23102598 6.09048891 0 4 C0 2.68 0 1.36 0 0 Z " fill="#8D713A" transform="translate(93,105)"/>
<path d="M0 0 C0.66 0.33 1.32 0.66 2 1 C2.4140625 3.50390625 2.4140625 3.50390625 2.625 6.5625 C2.69976562 7.57441406 2.77453125 8.58632812 2.8515625 9.62890625 C2.90054688 10.41136719 2.94953125 11.19382812 3 12 C2.01 12.33 1.02 12.66 0 13 C-0.73323796 15.01508358 -0.73323796 15.01508358 -1 17 C-1.66 17 -2.32 17 -3 17 C-3.33 15.02 -3.66 13.04 -4 11 C-4.99 11.495 -4.99 11.495 -6 12 C-7.54023996 12.06950541 -9.08334988 12.08452357 -10.625 12.0625 C-11.85089844 12.04896484 -11.85089844 12.04896484 -13.1015625 12.03515625 C-14.04128906 12.01775391 -14.04128906 12.01775391 -15 12 C-15 11.67 -15 11.34 -15 11 C-11.92382812 10.70703125 -11.92382812 10.70703125 -8.84765625 10.4140625 C-8.23792969 10.27742188 -7.62820312 10.14078125 -7 10 C-6.67 9.34 -6.34 8.68 -6 8 C-5.01 8.33 -4.02 8.66 -3 9 C-2.01 6.03 -1.02 3.06 0 0 Z " fill="#A9ACAD" transform="translate(77,83)"/>
<path d="M0 0 C3.14958831 3.42346555 3.56179109 6.44262737 4 11 C3.34 11 2.68 11 2 11 C0.64908472 13.70183055 0.66141942 16.11808206 0.4375 19.125 C0.35371094 20.22070312 0.26992187 21.31640625 0.18359375 22.4453125 C0.12300781 23.28835937 0.06242187 24.13140625 0 25 C-0.33 25 -0.66 25 -1 25 C-1.06058594 24.04738281 -1.12117188 23.09476563 -1.18359375 22.11328125 C-1.26738281 20.85902344 -1.35117188 19.60476562 -1.4375 18.3125 C-1.51871094 17.07113281 -1.59992188 15.82976562 -1.68359375 14.55078125 C-1.94514464 11.615599 -2.41194458 8.87837654 -3 6 C-2.57049648 2.99347539 -2.19963566 2.19963566 0 0 Z " fill="#A58440" transform="translate(127,73)"/>
<path d="M0 0 C7.59 0 15.18 0 23 0 C22.01 1.485 22.01 1.485 21 3 C18.93701172 3.34057617 18.93701172 3.34057617 16.4296875 3.29296875 C15.53378906 3.28330078 14.63789062 3.27363281 13.71484375 3.26367188 C12.30912109 3.2259668 12.30912109 3.2259668 10.875 3.1875 C9.93011719 3.17396484 8.98523437 3.16042969 8.01171875 3.14648438 C5.67391221 3.11106306 3.33723763 3.06167271 1 3 C0.67 2.01 0.34 1.02 0 0 Z " fill="#F3F4F5" transform="translate(50,53)"/>
<path d="M0 0 C0 0.66 0 1.32 0 2 C1.051875 2.103125 2.10375 2.20625 3.1875 2.3125 C6.87430754 2.97733415 8.96638599 3.88566296 12 6 C11.01 6.495 11.01 6.495 10 7 C9.443125 6.690625 8.88625 6.38125 8.3125 6.0625 C5.04845452 4.56280343 2.55573147 4.68809373 -1 5 C-3.76441969 6.40759341 -3.76441969 6.40759341 -6 8 C-6.66 8 -7.32 8 -8 8 C-8.1875 5.125 -8.1875 5.125 -8 2 C-4.77208445 -0.1519437 -3.71599191 -0.20086443 0 0 Z " fill="#BA8E4D" transform="translate(48,107)"/>
<path d="M0 0 C0 2.64 0 5.28 0 8 C-2.97 7.67 -5.94 7.34 -9 7 C-8.67 5.68 -8.34 4.36 -8 3 C-9.65 2.67 -11.3 2.34 -13 2 C-13 1.67 -13 1.34 -13 1 C-11.58366664 0.83052421 -10.16691467 0.66454493 -8.75 0.5 C-7.56664063 0.36078125 -7.56664063 0.36078125 -6.359375 0.21875 C-4 0 -4 0 0 0 Z " fill="#7F623B" transform="translate(78,109)"/>
<path d="M0 0 C6.3 -0.48461538 6.3 -0.48461538 9.4375 1.6875 C11.28968623 4.42873562 11.59716883 5.75822636 11 9 C10.01 9.66 9.02 10.32 8 11 C6 10 6 10 5.125 7.75 C3.86181712 4.66221961 2.16095927 2.52111915 0 0 Z " fill="#0A101B" transform="translate(94,107)"/>
<path d="M0 0 C0.99 0.33 1.98 0.66 3 1 C3.625 2.890625 3.625 2.890625 4 5.25 C4.71562315 9.05250607 5.7296328 11.80084622 8 15 C3.22299579 13.0538131 -0.13405342 9.8555998 -2.3125 5.1875 C-2.539375 4.465625 -2.76625 3.74375 -3 3 C-2.34 3 -1.68 3 -1 3 C-0.67 2.01 -0.34 1.02 0 0 Z " fill="#111F34" transform="translate(59,71)"/>
<path d="M0 0 C2.5 1.5 2.5 1.5 5 3 C7.721553 3.26041126 10.25687216 3.13948108 13 3 C11.9375 4.5625 11.9375 4.5625 10 6 C6.6398254 5.81671775 3.94745517 5.48808297 0.9375 3.9375 C-1.85813171 2.58477498 -3.93104844 2.68684168 -7 3 C-9.71126384 4.42621684 -9.71126384 4.42621684 -12 6 C-12.66 6 -13.32 6 -14 6 C-14 5.34 -14 4.68 -14 4 C-9.16991353 -0.1055735 -6.08357005 -0.67595223 0 0 Z " fill="#E4DBD2" transform="translate(54,118)"/>
<path d="M0 0 C13.86 0 27.72 0 42 0 C38.22943079 2.5137128 36.27702643 2.20456705 31.77734375 2.125 C30.72541588 2.11364014 30.72541588 2.11364014 29.65223694 2.10205078 C27.413741 2.07763145 25.17576177 2.04036801 22.9375 2 C19.98829539 1.94693516 17.03934465 1.90689544 14.08984375 1.875 C12.77878662 1.85179687 11.46772949 1.82859375 10.11694336 1.8046875 C6.897574 1.66142536 6.897574 1.66142536 5 4 C3.31503702 3.03114628 1.64821244 2.03013277 0 1 C0 0.67 0 0.34 0 0 Z " fill="#E0E2E5" transform="translate(34,52)"/>
<path d="M0 0 C0.66 0 1.32 0 2 0 C2.33 3.63 2.66 7.26 3 11 C2.01 11.495 2.01 11.495 1 12 C0.67 11.34 0.34 10.68 0 10 C-0.33 12.97 -0.66 15.94 -1 19 C-1.99 19 -2.98 19 -4 19 C-3.52570278 16.01998162 -3.04581304 13.04105713 -2.5625 10.0625 C-2.42779297 9.21236328 -2.29308594 8.36222656 -2.15429688 7.48632812 C-2.02216797 6.67744141 -1.89003906 5.86855469 -1.75390625 5.03515625 C-1.63345947 4.2862915 -1.5130127 3.53742676 -1.38891602 2.76586914 C-1 1 -1 1 0 0 Z " fill="#A9ADB0" transform="translate(86,85)"/>
<path d="M0 0 C0.33 0 0.66 0 1 0 C1.0270203 2.75006608 1.04684883 5.49986546 1.0625 8.25 C1.07087891 9.02730469 1.07925781 9.80460937 1.08789062 10.60546875 C1.09111328 11.35957031 1.09433594 12.11367187 1.09765625 12.890625 C1.10289307 13.58188477 1.10812988 14.27314453 1.11352539 14.98535156 C0.99437971 17.09973898 0.57618237 18.96641515 0 21 C-0.66 21 -1.32 21 -2 21 C-2.22331199 19.41870971 -2.42804644 17.83478911 -2.625 16.25 C-2.74101562 15.36828125 -2.85703125 14.4865625 -2.9765625 13.578125 C-3.00259696 10.71433417 -2.37197585 9.46148608 -1 7 C-0.61250787 4.67504723 -0.27017161 2.34148732 0 0 Z " fill="#B58C3B" transform="translate(131,84)"/>
<path d="M0 0 C0.33 0 0.66 0 1 0 C1 5.94 1 11.88 1 18 C1.99 18.33 2.98 18.66 4 19 C4.5625 20.8125 4.5625 20.8125 5 23 C5.63654342 24.3479743 6.29605388 25.68596724 7 27 C6.34 27.33 5.68 27.66 5 28 C2 23.25 2 23.25 2 21 C0.02 21.33 -1.96 21.66 -4 22 C-3.51917969 21.53078125 -3.03835937 21.0615625 -2.54296875 20.578125 C-0.26086991 16.76499783 -0.43198137 13.11960444 -0.3125 8.75 C-0.27833984 7.90953125 -0.24417969 7.0690625 -0.20898438 6.203125 C-0.12676432 4.13587796 -0.06169843 2.06796126 0 0 Z " fill="#2C3645" transform="translate(51,57)"/>
<path d="M0 0 C4.47493134 -0.5777063 8.39810413 -1.07528294 12.26953125 1.5234375 C13.59249052 2.76292133 14.87775181 4.04444066 16.11328125 5.37109375 C18.375747 7.32440269 20.07080641 7.64204347 23 8 C23 9.32 23 10.64 23 12 C19 12 19 12 17.4375 10.57421875 C16.963125 9.95160156 16.48875 9.32898438 16 8.6875 C15.48050781 8.04941406 14.96101563 7.41132812 14.42578125 6.75390625 C13.95527344 6.17511719 13.48476562 5.59632812 13 5 C9.34177444 1.21562873 5.01423226 1.31071097 0 1 C0 0.67 0 0.34 0 0 Z " fill="#95783C" transform="translate(93,102)"/>
<path d="M0 0 C0.66 0 1.32 0 2 0 C2 0.66 2 1.32 2 2 C7.445 1.505 7.445 1.505 13 1 C13.33 2.65 13.66 4.3 14 6 C12.35 6.33 10.7 6.66 9 7 C8.67 6.34 8.34 5.68 8 5 C5.67843403 4.59270772 3.3431213 4.25561323 1 4 C0.67 2.68 0.34 1.36 0 0 Z " fill="#193B46" transform="translate(60,93)"/>
<path d="M0 0 C3.3 0.33 6.6 0.66 10 1 C9.67 1.66 9.34 2.32 9 3 C6.69 3 4.38 3 2 3 C2 3.66 2 4.32 2 5 C3.65 5 5.3 5 7 5 C7 5.33 7 5.66 7 6 C3.7 6 0.4 6 -3 6 C-3 5.01 -3 4.02 -3 3 C-2.34 3 -1.68 3 -1 3 C-0.67 2.01 -0.34 1.02 0 0 Z " fill="#04091D" transform="translate(96,95)"/>
<path d="M0 0 C0.33 0 0.66 0 1 0 C1 2.64 1 5.28 1 8 C1.66 8.33 2.32 8.66 3 9 C2.69320312 9.84820312 2.38640625 10.69640625 2.0703125 11.5703125 C0.99392617 15.01946287 0.38548682 18.30159223 -0.125 21.875 C-0.29257813 23.02742188 -0.46015625 24.17984375 -0.6328125 25.3671875 C-0.75398438 26.23601562 -0.87515625 27.10484375 -1 28 C-1.33 28 -1.66 28 -2 28 C-2.32417212 18.49095101 -1.33418593 9.38695104 0 0 Z " fill="#454C54" transform="translate(84,76)"/>
<path d="M0 0 C2.0625 0.4375 2.0625 0.4375 4 1 C3.67 2.32 3.34 3.64 3 5 C2.31292969 4.89300781 1.62585938 4.78601563 0.91796875 4.67578125 C0.01691406 4.55589844 -0.88414063 4.43601562 -1.8125 4.3125 C-2.70582031 4.18488281 -3.59914063 4.05726562 -4.51953125 3.92578125 C-7.62627109 4.01873882 -7.90762942 4.86403837 -10 7 C-12.48046875 7.29296875 -12.48046875 7.29296875 -15.1875 7.1875 C-16.53908203 7.14689453 -16.53908203 7.14689453 -17.91796875 7.10546875 C-18.60503906 7.07066406 -19.29210937 7.03585938 -20 7 C-20 6.67 -20 6.34 -20 6 C-19.07767578 5.94392578 -19.07767578 5.94392578 -18.13671875 5.88671875 C-17.32847656 5.82097656 -16.52023438 5.75523438 -15.6875 5.6875 C-14.88699219 5.62949219 -14.08648437 5.57148437 -13.26171875 5.51171875 C-10.58939487 4.9070997 -9.85545845 3.93635037 -8 2 C-5.67724823 1.59952556 -3.34260643 1.2602896 -1 1 C-0.67 0.67 -0.34 0.34 0 0 Z " fill="#897536" transform="translate(117,83)"/>
<path d="M0 0 C1.62463842 -0.05395478 3.24978541 -0.09277195 4.875 -0.125 C5.77992187 -0.14820312 6.68484375 -0.17140625 7.6171875 -0.1953125 C10 0 10 0 12 2 C14.68839385 2.26991906 17.29141936 2.08737357 20 2 C20.33 3.32 20.66 4.64 21 6 C17.0553602 6 14.6315718 5.42104983 11 4 C10.34 3.34 9.68 2.68 9 2 C6.79749008 1.53993654 6.79749008 1.53993654 4.375 1.375 C3.14910156 1.26285156 3.14910156 1.26285156 1.8984375 1.1484375 C1.27195312 1.09945312 0.64546875 1.05046875 0 1 C0 0.67 0 0.34 0 0 Z " fill="#8B6B34" transform="translate(98,99)"/>
<path d="M0 0 C0.99 0 1.98 0 3 0 C2.67 1.32 2.34 2.64 2 4 C0.989375 4.020625 -0.02125 4.04125 -1.0625 4.0625 C-6.12637044 4.72390349 -8.81696186 8.29451791 -12 12 C-12.66 11.67 -13.32 11.34 -14 11 C-12.62035577 9.48509654 -11.22059683 7.98849387 -9.8125 6.5 C-9.03519531 5.6646875 -8.25789063 4.829375 -7.45703125 3.96875 C-5 2 -5 2 -2.19921875 1.71875 C-1.11060547 1.85796875 -1.11060547 1.85796875 0 2 C0 1.34 0 0.68 0 0 Z " fill="#8F7841" transform="translate(114,74)"/>
<path d="M0 0 C0.10884119 1.41493551 0.18597617 2.83232943 0.25 4.25 C0.29640625 5.03890625 0.3428125 5.8278125 0.390625 6.640625 C0 9 0 9 -4 13 C-4 9.04 -4 5.08 -4 1 C-2 0 -2 0 0 0 Z " fill="#CFA348" transform="translate(131,84)"/>
<path d="M0 0 C-0.3358407 3.10652645 -0.59049279 4.60414303 -2.875 6.8125 C-5 8 -5 8 -8 8 C-7.8125 5.6875 -7.8125 5.6875 -7 3 C-2.96551724 0 -2.96551724 0 0 0 Z " fill="#C99E43" transform="translate(126,112)"/>
<path d="M0 0 C0.99 0 1.98 0 3 0 C3 0.66 3 1.32 3 2 C4.32 2.33 5.64 2.66 7 3 C6.67 4.32 6.34 5.64 6 7 C3.03 6.01 0.06 5.02 -3 4 C-2.34 3.67 -1.68 3.34 -1 3 C-0.67 2.01 -0.34 1.02 0 0 Z " fill="#80734C" transform="translate(56,100)"/>
<path d="M0 0 C-0.33 0.99 -0.66 1.98 -1 3 C-1.99 3 -2.98 3 -4 3 C-4 2.34 -4 1.68 -4 1 C-10.93 1 -17.86 1 -25 1 C-25 0.67 -25 0.34 -25 0 C-21.58382503 -0.1972935 -18.16705407 -0.38112295 -14.75 -0.5625 C-13.29787109 -0.64661133 -13.29787109 -0.64661133 -11.81640625 -0.73242188 C-10.88183594 -0.78076172 -9.94726562 -0.82910156 -8.984375 -0.87890625 C-8.12553711 -0.9260376 -7.26669922 -0.97316895 -6.38183594 -1.02172852 C-4.07335735 -1.00066921 -2.20243733 -0.66206871 0 0 Z " fill="#817A5F" transform="translate(123,93)"/>
<path d="M0 0 C0.33 0 0.66 0 1 0 C1 3.63 1 7.26 1 11 C-0.32 11.33 -1.64 11.66 -3 12 C-3 11.01 -3 10.02 -3 9 C-3.66 8.34 -4.32 7.68 -5 7 C-4.34 7 -3.68 7 -3 7 C-3 6.01 -3 5.02 -3 4 C-2.34 4 -1.68 4 -1 4 C-0.67 2.68 -0.34 1.36 0 0 Z " fill="#141D2A" transform="translate(125,84)"/>
<path d="M0 0 C3.55420724 0.29618394 4.80337043 0.80337043 7.375 3.375 C8.179375 4.674375 8.179375 4.674375 9 6 C8.67 6.99 8.34 7.98 8 9 C4.67336597 7.89112199 4.21086541 7.28198895 2.3125 4.5 C1.87550781 3.8709375 1.43851562 3.241875 0.98828125 2.59375 C0 1 0 1 0 0 Z " fill="#BA8F3C" transform="translate(118,65)"/>
<path d="M0 0 C0.99 0.33 1.98 0.66 3 1 C3.18451025 10.41002278 3.18451025 10.41002278 2 15 C-0.02558881 11.65060119 -0.21738987 9.13037449 -0.125 5.25 C-0.09792969 3.77273437 -0.09792969 3.77273437 -0.0703125 2.265625 C-0.04710938 1.51796875 -0.02390625 0.7703125 0 0 Z " fill="#D7D9D3" transform="translate(81,104)"/>
<path d="M0 0 C3 1 3 1 5 3 C5.125 6.125 5.125 6.125 5 9 C4.34 9 3.68 9 3 9 C2.67 7.02 2.34 5.04 2 3 C1.01 3.495 1.01 3.495 0 4 C-1.54023996 4.06950541 -3.08334988 4.08452357 -4.625 4.0625 C-5.85089844 4.04896484 -5.85089844 4.04896484 -7.1015625 4.03515625 C-8.04128906 4.01775391 -8.04128906 4.01775391 -9 4 C-9 3.67 -9 3.34 -9 3 C-5.92382812 2.70703125 -5.92382812 2.70703125 -2.84765625 2.4140625 C-2.23792969 2.27742188 -1.62820312 2.14078125 -1 2 C-0.67 1.34 -0.34 0.68 0 0 Z " fill="#C8D1D0" transform="translate(71,91)"/>
<path d="M0 0 C1.32 0 2.64 0 4 0 C2.8141763 3.37503669 1.72426311 5.64722731 -1 8 C-1.33 7.01 -1.66 6.02 -2 5 C-2.99 4.67 -3.98 4.34 -5 4 C-4.01 4 -3.02 4 -2 4 C-1.67 3.01 -1.34 2.02 -1 1 C-0.67 0.67 -0.34 0.34 0 0 Z " fill="#151F2A" transform="translate(118,110)"/>
<path d="M0 0 C0.99 0.66 1.98 1.32 3 2 C1.74057614 3.19959375 0.46704714 4.38439443 -0.8125 5.5625 C-1.87404297 6.55443359 -1.87404297 6.55443359 -2.95703125 7.56640625 C-3.63121094 8.03949219 -4.30539063 8.51257812 -5 9 C-5.99 8.67 -6.98 8.34 -8 8 C-5.36 5.36 -2.72 2.72 0 0 Z " fill="#121B2E" transform="translate(32,40)"/>
<path d="M0 0 C0.66 0.33 1.32 0.66 2 1 C2 1.66 2 2.32 2 3 C-1.96 3 -5.92 3 -10 3 C-5.78622182 -0.16033363 -4.9510716 -0.43052797 0 0 Z " fill="#5E478E" transform="translate(53,120)"/>
<path d="M0 0 C0.33 0 0.66 0 1 0 C1 6.93 1 13.86 1 21 C0.01 19.68 -0.98 18.36 -2 17 C-1.72265625 15.171875 -1.72265625 15.171875 -1 13 C-0.7801777 10.75292759 -0.59516013 8.50228762 -0.4375 6.25 C-0.35371094 5.07953125 -0.26992187 3.9090625 -0.18359375 2.703125 C-0.12300781 1.81109375 -0.06242187 0.9190625 0 0 Z " fill="#1A2135" transform="translate(80,105)"/>
<path d="M0 0 C0.66 0.66 1.32 1.32 2 2 C1.625 5.125 1.625 5.125 1 8 C0.34 8 -0.32 8 -1 8 C-1.33 8.99 -1.66 9.98 -2 11 C-2.83759564 7.64961743 -3.24052591 5.2704774 -2 2 C-1.34 1.34 -0.68 0.68 0 0 Z " fill="#B28B41" transform="translate(127,73)"/>
<path d="M0 0 C0 1.98 0 3.96 0 6 C-1.65 6.66 -3.3 7.32 -5 8 C-5.25 5.6875 -5.25 5.6875 -5 3 C-1.79310345 0 -1.79310345 0 0 0 Z " fill="#A97543" transform="translate(45,114)"/>
<path d="M0 0 C3.875 1.875 3.875 1.875 5 3 C5.04063832 4.66617115 5.042721 6.33388095 5 8 C3.68 8.33 2.36 8.66 1 9 C1.66 8.67 2.32 8.34 3 8 C2.505 7.05125 2.01 6.1025 1.5 5.125 C0 2 0 2 0 0 Z " fill="#57677B" transform="translate(70,79)"/>
<path d="M0 0 C2.64465038 3.1254959 3.84414715 6.08788267 5 10 C3.68 10.33 2.36 10.66 1 11 C1 10.34 1 9.68 1 9 C0.01 8.67 -0.98 8.34 -2 8 C-1.34 7.67 -0.68 7.34 0 7 C0 4.69 0 2.38 0 0 Z " fill="#394C63" transform="translate(69,79)"/>
<path d="M0 0 C0.66 0.33 1.32 0.66 2 1 C0.68 2.32 -0.64 3.64 -2 5 C-0.35 5.33 1.3 5.66 3 6 C3 6.33 3 6.66 3 7 C-0.3 7.33 -3.6 7.66 -7 8 C-6.34 7.67 -5.68 7.34 -5 7 C-4.690625 6.38125 -4.38125 5.7625 -4.0625 5.125 C-2.97094732 2.94189465 -1.79288485 1.62989532 0 0 Z " fill="#050C19" transform="translate(47,79)"/>
<path d="M0 0 C-1.28573642 2.57147284 -2.21354542 2.63147834 -4.875 3.5625 C-5.92300781 3.93568359 -5.92300781 3.93568359 -6.9921875 4.31640625 C-8.65929413 4.88400092 -10.32929135 5.44309712 -12 6 C-12 5.34 -12 4.68 -12 4 C-7.9090934 0.68831371 -5.26371362 -0.50130606 0 0 Z " fill="#ECE4E2" transform="translate(52,118)"/>
<path d="M0 0 C0.66 0 1.32 0 2 0 C1.44687265 4.02992782 0.8441938 8.02022924 0 12 C-2 9 -2 9 -2 7 C-2.66 6.67 -3.32 6.34 -4 6 C-3.01 6 -2.02 6 -1 6 C-0.67 4.02 -0.34 2.04 0 0 Z " fill="#222933" transform="translate(75,83)"/>
<path d="M0 0 C1 3.875 1 3.875 1 5 C-1.97 5.66 -4.94 6.32 -8 7 C-5.42215154 4.35247996 -3.08351902 2.05567935 0 0 Z " fill="#CA9E40" transform="translate(114,122)"/>
<path d="M0 0 C0.66 0 1.32 0 2 0 C3.32286246 4.96073422 3.08893197 9.91111512 3 15 C2.67 15 2.34 15 2 15 C2 12.36 2 9.72 2 7 C0.68 6.34 -0.64 5.68 -2 5 C-1.01 5 -0.02 5 1 5 C0.67 3.35 0.34 1.7 0 0 Z " fill="#38322B" transform="translate(76,102)"/>
<path d="M0 0 C1.32 0.66 2.64 1.32 4 2 C-2.625 6 -2.625 6 -6 6 C-4 4 -2 2 0 0 Z " fill="#382C61" transform="translate(71,117)"/>
<path d="M0 0 C0.33 0 0.66 0 1 0 C3.27678571 8.03571429 3.27678571 8.03571429 2 12 C1.67 11.34 1.34 10.68 1 10 C0.01 10.495 0.01 10.495 -1 11 C-0.67 7.37 -0.34 3.74 0 0 Z " fill="#2A2D33" transform="translate(77,89)"/>
<path d="M0 0 C1.37478516 0.01740234 1.37478516 0.01740234 2.77734375 0.03515625 C3.69644531 0.04417969 4.61554688 0.05320312 5.5625 0.0625 C6.27277344 0.07410156 6.98304687 0.08570312 7.71484375 0.09765625 C6.72484375 0.59265625 6.72484375 0.59265625 5.71484375 1.09765625 C5.71484375 1.75765625 5.71484375 2.41765625 5.71484375 3.09765625 C2.33984375 3.22265625 2.33984375 3.22265625 -1.28515625 3.09765625 C-1.94515625 2.43765625 -2.60515625 1.77765625 -3.28515625 1.09765625 C-2.28515625 0.09765625 -2.28515625 0.09765625 0 0 Z " fill="#142335" transform="translate(65.28515625,89.90234375)"/>
<path d="M0 0 C-1.36983503 3.16115776 -1.9890638 3.9927092 -5 6 C-5.33 4.35 -5.66 2.7 -6 1 C-3 0 -3 0 0 0 Z " fill="#1A1F23" transform="translate(98,79)"/>
<path d="M0 0 C4.92307692 4.30769231 4.92307692 4.30769231 5.3125 7.8125 C5.209375 8.534375 5.10625 9.25625 5 10 C2.66063182 7.87330165 1.19346152 5.93775144 0 3 C0 2.01 0 1.02 0 0 Z " fill="#CA9F41" transform="translate(121,70)"/>
<path d="M0 0 C0.33 0 0.66 0 1 0 C1.33 2.64 1.66 5.28 2 8 C2.66 8 3.32 8 4 8 C3.67 8.99 3.34 9.98 3 11 C1.68 10.67 0.36 10.34 -1 10 C-0.67 6.7 -0.34 3.4 0 0 Z " fill="#6B5832" transform="translate(97,113)"/>
<path d="M0 0 C0.33 0.66 0.66 1.32 1 2 C1.99 2.33 2.98 2.66 4 3 C2.71034824 4.37562854 1.37310707 5.70766393 0 7 C-0.66 7 -1.32 7 -2 7 C-1.125 2.25 -1.125 2.25 0 0 Z " fill="#DEE0E2" transform="translate(43,77)"/>
<path d="M0 0 C0.99 0 1.98 0 3 0 C3.185625 1.1446875 3.185625 1.1446875 3.375 2.3125 C3.88102792 5.20267136 3.88102792 5.20267136 6 8 C5.34 8.66 4.68 9.32 4 10 C3.32845067 8.71086513 2.66291141 7.41859796 2 6.125 C1.62875 5.40570313 1.2575 4.68640625 0.875 3.9453125 C0 2 0 2 0 0 Z " fill="#171E30" transform="translate(15,118)"/>
<path d="M0 0 C-1 1.5 -1 1.5 -3 3 C-5.71846235 3.27345479 -8.25677199 3.13491285 -11 3 C-6.98213116 0.99106558 -4.56087444 -0.12002301 0 0 Z " fill="#BB8A49" transform="translate(73,116)"/>
<path d="M0 0 C0.66 0 1.32 0 2 0 C2 2.31 2 4.62 2 7 C0 5.625 0 5.625 -2 4 C-2 3.34 -2 2.68 -2 2 C-1.34 2 -0.68 2 0 2 C0 1.34 0 0.68 0 0 Z " fill="#3E5164" transform="translate(58,72)"/>
<path d="M0 0 C-1.25 1.5625 -1.25 1.5625 -3 3 C-5.1875 2.6875 -5.1875 2.6875 -7 2 C-7 1.34 -7 0.68 -7 0 C-4.3333581 -1.33332095 -2.83319697 -0.67102033 0 0 Z " fill="#B38533" transform="translate(111,56)"/>
<path d="M0 0 C1.32 0 2.64 0 4 0 C4 1.65 4 3.3 4 5 C2.68 4.67 1.36 4.34 0 4 C0 2.68 0 1.36 0 0 Z " fill="#B18949" transform="translate(74,109)"/>
<path d="M0 0 C2.64 0 5.28 0 8 0 C6.515 1.98 6.515 1.98 5 4 C3.31503702 3.03114628 1.64821244 2.03013277 0 1 C0 0.67 0 0.34 0 0 Z " fill="#D2D2D5" transform="translate(34,52)"/>
</svg>
